<svg xmlns="http://www.w3.org/2000/svg" version="1.1" xmlns:xlink="http://www.w3.org/1999/xlink" xmlns:svgjs="http://svgjs.com/svgjs" width="1000" height="1000"><rect width="1000" height="1000" rx="500" ry="500" fill="#eee7e7"></rect><g transform="matrix(1.6,0,0,1.6,97.46076316833495,94.57326660156247)"><svg xmlns="http://www.w3.org/2000/svg" version="1.1" xmlns:xlink="http://www.w3.org/1999/xlink" xmlns:svgjs="http://svgjs.com/svgjs" width="500" height="500"><svg xmlns="http://www.w3.org/2000/svg" xmlns:xlink="http://www.w3.org/1999/xlink" width="500" zoomAndPan="magnify" viewBox="0 0 375 374.999991" height="500" preserveAspectRatio="xMidYMid meet" version="1.0"><defs><g></g></defs><g fill="#000000" fill-opacity="1"><g transform="translate(5.257881, 269.694787)"><g><path d="M 243.097656 -105.886719 L 162.746094 -105.886719 C 159.683594 -105.886719 157.980469 -103.503906 157.980469 -101.121094 C 157.980469 -98.738281 159.683594 -96.355469 162.746094 -96.355469 L 180.113281 -96.355469 L 180.113281 -12.597656 C 165.8125 -6.808594 150.148438 -4.085938 133.464844 -4.085938 C 109.972656 -4.085938 89.203125 -9.535156 72.179688 -19.40625 L 72.179688 -218.925781 C 89.203125 -228.800781 109.972656 -234.246094 133.125 -234.246094 L 133.464844 -234.246094 C 160.363281 -234.246094 206.328125 -226.074219 206.328125 -189.304688 L 206.328125 -182.835938 C 206.328125 -179.429688 209.050781 -177.726562 211.433594 -177.726562 C 213.820312 -177.726562 216.542969 -179.429688 216.542969 -182.835938 L 216.542969 -238.671875 C 216.542969 -241.738281 213.820312 -243.441406 211.433594 -243.441406 C 209.050781 -243.441406 206.328125 -241.738281 206.328125 -238.671875 L 206.328125 -217.902344 C 189.984375 -237.3125 157.300781 -243.78125 133.464844 -243.78125 L 133.125 -243.78125 C 59.582031 -243.78125 10.214844 -193.730469 10.214844 -119.167969 C 10.214844 -44.601562 59.582031 5.449219 133.464844 5.449219 C 172.621094 5.449219 208.371094 -9.191406 231.183594 -39.15625 C 232.542969 -41.199219 233.226562 -42.898438 233.226562 -45.28125 L 233.226562 -96.355469 L 243.097656 -96.355469 C 246.503906 -96.355469 248.207031 -98.738281 248.207031 -101.121094 C 248.207031 -103.503906 246.503906 -105.886719 243.097656 -105.886719 Z M 19.746094 -119.167969 C 19.746094 -159.683594 35.410156 -192.367188 61.964844 -212.457031 L 61.964844 -26.214844 C 35.410156 -45.964844 19.746094 -78.648438 19.746094 -119.167969 Z M 223.011719 -96.355469 L 223.011719 -44.261719 C 213.820312 -32.6875 202.921875 -23.832031 190.324219 -17.023438 L 190.324219 -96.355469 Z M 223.011719 -96.355469 "></path></g></g></g><g fill="#000000" fill-opacity="1"><g transform="translate(124.711314, 357.360279)"><g><path d="M 236.203125 -102.882812 L 158.128906 -102.882812 C 155.152344 -102.882812 153.5 -100.570312 153.5 -98.253906 C 153.5 -95.9375 155.152344 -93.621094 158.128906 -93.621094 L 175.003906 -93.621094 L 175.003906 -12.242188 C 161.109375 -6.617188 145.890625 -3.96875 129.679688 -3.96875 C 106.855469 -3.96875 86.675781 -9.261719 70.132812 -18.855469 L 70.132812 -212.714844 C 86.675781 -222.308594 106.855469 -227.601562 129.347656 -227.601562 L 129.679688 -227.601562 C 155.816406 -227.601562 200.476562 -219.664062 200.476562 -183.933594 L 200.476562 -177.648438 C 200.476562 -174.339844 203.121094 -172.6875 205.4375 -172.6875 C 207.753906 -172.6875 210.398438 -174.339844 210.398438 -177.648438 L 210.398438 -231.902344 C 210.398438 -234.878906 207.753906 -236.535156 205.4375 -236.535156 C 203.121094 -236.535156 200.476562 -234.878906 200.476562 -231.902344 L 200.476562 -211.722656 C 184.597656 -230.578125 152.835938 -236.863281 129.679688 -236.863281 L 129.347656 -236.863281 C 57.894531 -236.863281 9.925781 -188.234375 9.925781 -115.785156 C 9.925781 -43.335938 57.894531 5.292969 129.679688 5.292969 C 167.722656 5.292969 202.460938 -8.933594 224.625 -38.042969 C 225.949219 -40.027344 226.609375 -41.683594 226.609375 -44 L 226.609375 -93.621094 L 236.203125 -93.621094 C 239.511719 -93.621094 241.164062 -95.9375 241.164062 -98.253906 C 241.164062 -100.570312 239.511719 -102.882812 236.203125 -102.882812 Z M 19.1875 -115.785156 C 19.1875 -155.152344 34.40625 -186.910156 60.207031 -206.429688 L 60.207031 -25.472656 C 34.40625 -44.660156 19.1875 -76.417969 19.1875 -115.785156 Z M 216.683594 -93.621094 L 216.683594 -43.007812 C 207.753906 -31.757812 197.167969 -23.15625 184.925781 -16.539062 L 184.925781 -93.621094 Z M 216.683594 -93.621094 "></path></g></g></g></svg></svg></g></svg>